<svg width="55" height="51" viewBox="0 0 55 51" fill="none" xmlns="http://www.w3.org/2000/svg">
<path d="M36.3512 2.35724C36.4215 2.12857 36.4461 1.88829 36.4236 1.65012C36.401 1.41195 36.3318 1.18055 36.2199 0.969136C36.1079 0.757719 35.9554 0.570426 35.771 0.417951C35.5867 0.265475 35.3741 0.150802 35.1454 0.0804806C34.9168 0.0101586 34.6765 -0.0144355 34.4383 0.00810214C34.2001 0.0306398 33.9687 0.099868 33.7573 0.211834C33.5459 0.3238 33.3586 0.476311 33.2061 0.66066C33.0537 0.845009 32.939 1.05758 32.8687 1.28625L18.2974 48.6428C18.1554 49.1046 18.2027 49.6039 18.4288 50.0309C18.6549 50.4578 19.0414 50.7775 19.5032 50.9195C19.965 51.0615 20.4643 51.0143 20.8913 50.7882C21.3183 50.562 21.6379 50.1756 21.78 49.7138L36.3512 2.35724ZM15.864 11.4606C16.0337 11.6298 16.1682 11.8308 16.2601 12.0521C16.3519 12.2734 16.3992 12.5106 16.3992 12.7502C16.3992 12.9897 16.3519 13.227 16.2601 13.4483C16.1682 13.6695 16.0337 13.8705 15.864 14.0397L4.40013 25.5L15.864 36.9603C16.2061 37.3023 16.3982 37.7662 16.3982 38.2498C16.3982 38.7335 16.2061 39.1974 15.864 39.5394C15.522 39.8814 15.0582 40.0735 14.5745 40.0735C14.0908 40.0735 13.6269 39.8814 13.2849 39.5394L0.535106 26.7896C0.365485 26.6204 0.230909 26.4194 0.139087 26.1981C0.0472647 25.9768 0 25.7396 0 25.5C0 25.2604 0.0472647 25.0232 0.139087 24.8019C0.230909 24.5806 0.365485 24.3796 0.535106 24.2104L13.2849 11.4606C13.4541 11.291 13.6551 11.1564 13.8764 11.0646C14.0977 10.9728 14.3349 10.9255 14.5745 10.9255C14.8141 10.9255 15.0513 10.9728 15.2726 11.0646C15.4939 11.1564 15.6949 11.291 15.864 11.4606ZM38.7846 11.4606C38.615 11.6298 38.4804 11.8308 38.3886 12.0521C38.2968 12.2734 38.2495 12.5106 38.2495 12.7502C38.2495 12.9897 38.2968 13.227 38.3886 13.4483C38.4804 13.6695 38.615 13.8705 38.7846 14.0397L50.2485 25.5L38.7846 36.9603C38.6153 37.1296 38.4809 37.3307 38.3893 37.5519C38.2976 37.7732 38.2505 38.0103 38.2505 38.2498C38.2505 38.4893 38.2976 38.7265 38.3893 38.9477C38.4809 39.169 38.6153 39.37 38.7846 39.5394C38.9539 39.7087 39.155 39.8431 39.3763 39.9347C39.5975 40.0264 39.8347 40.0735 40.0742 40.0735C40.3136 40.0735 40.5508 40.0264 40.7721 39.9347C40.9933 39.8431 41.1944 39.7087 41.3637 39.5394L54.1135 26.7896C54.2832 26.6204 54.4177 26.4194 54.5096 26.1981C54.6014 25.9768 54.6486 25.7396 54.6486 25.5C54.6486 25.2604 54.6014 25.0232 54.5096 24.8019C54.4177 24.5806 54.2832 24.3796 54.1135 24.2104L41.3637 11.4606C41.1945 11.291 40.9935 11.1564 40.7722 11.0646C40.551 10.9728 40.3137 10.9255 40.0742 10.9255C39.8346 10.9255 39.5974 10.9728 39.3761 11.0646C39.1548 11.1564 38.9538 11.291 38.7846 11.4606Z" fill="#5674BC"/>
</svg>
