<svg width="247" height="195" viewBox="0 0 247 195" fill="none" xmlns="http://www.w3.org/2000/svg">
<circle cx="6.5" cy="6.5" r="6.5" fill="#38B6FF" fill-opacity="0.4"/>
<circle cx="6.5" cy="110.5" r="6.5" fill="#38B6FF" fill-opacity="0.4"/>
<circle cx="136.5" cy="6.5" r="6.5" fill="#38B6FF" fill-opacity="0.4"/>
<circle cx="136.5" cy="110.5" r="6.5" fill="#38B6FF" fill-opacity="0.4"/>
<circle cx="6.5" cy="32.5" r="6.5" fill="#38B6FF" fill-opacity="0.4"/>
<circle cx="136.5" cy="32.5" r="6.5" fill="#38B6FF" fill-opacity="0.4"/>
<circle cx="6.5" cy="58.5" r="6.5" fill="#38B6FF" fill-opacity="0.4"/>
<circle cx="136.5" cy="58.5" r="6.5" fill="#38B6FF" fill-opacity="0.4"/>
<circle cx="6.5" cy="84.5" r="6.5" fill="#38B6FF" fill-opacity="0.4"/>
<circle cx="136.5" cy="84.5" r="6.5" fill="#38B6FF" fill-opacity="0.4"/>
<circle cx="32.5" cy="6.5" r="6.5" fill="#38B6FF" fill-opacity="0.4"/>
<circle cx="32.5" cy="110.5" r="6.5" fill="#38B6FF" fill-opacity="0.4"/>
<circle cx="162.5" cy="6.5" r="6.5" fill="#38B6FF" fill-opacity="0.4"/>
<circle cx="162.5" cy="110.5" r="6.5" fill="#38B6FF" fill-opacity="0.4"/>
<circle cx="32.5" cy="32.5" r="6.5" fill="#38B6FF" fill-opacity="0.4"/>
<circle cx="162.5" cy="32.5" r="6.5" fill="#38B6FF" fill-opacity="0.4"/>
<circle cx="32.5" cy="58.5" r="6.5" fill="#38B6FF" fill-opacity="0.4"/>
<circle cx="162.5" cy="58.5" r="6.5" fill="#38B6FF" fill-opacity="0.4"/>
<circle cx="32.5" cy="84.5" r="6.5" fill="#38B6FF" fill-opacity="0.4"/>
<circle cx="162.5" cy="84.5" r="6.5" fill="#38B6FF" fill-opacity="0.4"/>
<circle cx="58.5" cy="6.5" r="6.5" fill="#38B6FF" fill-opacity="0.4"/>
<circle cx="58.5" cy="110.5" r="6.5" fill="#38B6FF" fill-opacity="0.4"/>
<circle cx="188.5" cy="6.5" r="6.5" fill="#38B6FF" fill-opacity="0.4"/>
<circle cx="188.5" cy="110.5" r="6.5" fill="#38B6FF" fill-opacity="0.4"/>
<circle cx="58.5" cy="32.5" r="6.5" fill="#38B6FF" fill-opacity="0.4"/>
<circle cx="188.5" cy="32.5" r="6.5" fill="#38B6FF" fill-opacity="0.4"/>
<circle cx="58.5" cy="58.5" r="6.5" fill="#38B6FF" fill-opacity="0.4"/>
<circle cx="188.5" cy="58.5" r="6.5" fill="#38B6FF" fill-opacity="0.4"/>
<circle cx="58.5" cy="84.5" r="6.5" fill="#38B6FF" fill-opacity="0.4"/>
<circle cx="188.5" cy="84.5" r="6.5" fill="#38B6FF" fill-opacity="0.4"/>
<circle cx="84.5" cy="6.5" r="6.5" fill="#38B6FF" fill-opacity="0.4"/>
<circle cx="84.5" cy="110.5" r="6.5" fill="#38B6FF" fill-opacity="0.4"/>
<circle cx="214.5" cy="6.5" r="6.5" fill="#38B6FF" fill-opacity="0.4"/>
<circle cx="214.5" cy="110.5" r="6.5" fill="#38B6FF" fill-opacity="0.4"/>
<circle cx="84.5" cy="32.5" r="6.5" fill="#38B6FF" fill-opacity="0.4"/>
<circle cx="214.5" cy="32.5" r="6.5" fill="#38B6FF" fill-opacity="0.4"/>
<circle cx="84.5" cy="58.5" r="6.5" fill="#38B6FF" fill-opacity="0.4"/>
<circle cx="214.5" cy="58.5" r="6.5" fill="#38B6FF" fill-opacity="0.4"/>
<circle cx="84.5" cy="84.5" r="6.5" fill="#38B6FF" fill-opacity="0.4"/>
<circle cx="214.5" cy="84.5" r="6.5" fill="#38B6FF" fill-opacity="0.4"/>
<circle cx="110.5" cy="6.5" r="6.5" fill="#38B6FF" fill-opacity="0.4"/>
<circle cx="110.5" cy="110.5" r="6.5" fill="#38B6FF" fill-opacity="0.4"/>
<circle cx="240.5" cy="6.5" r="6.5" fill="#38B6FF" fill-opacity="0.4"/>
<circle cx="240.5" cy="110.5" r="6.5" fill="#38B6FF" fill-opacity="0.4"/>
<circle cx="110.5" cy="32.5" r="6.5" fill="#38B6FF" fill-opacity="0.4"/>
<circle cx="240.5" cy="32.5" r="6.5" fill="#38B6FF" fill-opacity="0.4"/>
<circle cx="110.5" cy="58.5" r="6.5" fill="#38B6FF" fill-opacity="0.4"/>
<circle cx="240.5" cy="58.5" r="6.5" fill="#38B6FF" fill-opacity="0.4"/>
<circle cx="110.5" cy="84.5" r="6.5" fill="#38B6FF" fill-opacity="0.4"/>
<circle cx="240.5" cy="84.5" r="6.5" fill="#38B6FF" fill-opacity="0.4"/>
</svg>
