<svg width="38" height="51" viewBox="0 0 38 51" fill="none" xmlns="http://www.w3.org/2000/svg">
<path d="M1.14982e-05 19.1254C-8.70149e-05 15.9673 0.776786 12.8583 2.26126 10.0761C3.74574 7.29382 5.89161 4.92491 8.50728 3.18085C11.1229 1.4368 14.127 0.371879 17.2512 0.0811923C20.3753 -0.209495 23.5224 0.283095 26.4114 1.51498C29.3003 2.74686 31.8412 4.67969 33.8072 7.14089C35.7732 9.60208 37.1031 12.515 37.6782 15.6196C38.2532 18.7242 38.0555 21.9239 37.1026 24.9328C36.1498 27.9417 34.4715 30.6664 32.2177 32.8633C31.5748 33.4881 31.0808 34.1383 30.7832 34.8364L28.3702 40.475C28.2477 40.7608 28.0448 41.0042 27.7866 41.1753C27.5283 41.3463 27.2259 41.4375 26.9167 41.4376C27.3366 41.4376 27.7393 41.6055 28.0363 41.9044C28.3332 42.2033 28.5 42.6087 28.5 43.0313C28.5 43.454 28.3332 43.8594 28.0363 44.1583C27.7393 44.4572 27.3366 44.6251 26.9167 44.6251C27.3366 44.6251 27.7393 44.793 28.0363 45.0919C28.3332 45.3907 28.5 45.7961 28.5 46.2188C28.5 46.6415 28.3332 47.0469 28.0363 47.3457C27.7393 47.6446 27.3366 47.8125 26.9167 47.8125L26.2073 49.2373C25.9445 49.7667 25.5405 50.212 25.0405 50.5233C24.5405 50.8346 23.9643 50.9997 23.3763 51H14.6237C14.0357 50.9997 13.4595 50.8346 12.9595 50.5233C12.4595 50.212 12.0555 49.7667 11.7927 49.2373L11.0833 47.8125C10.6634 47.8125 10.2607 47.6446 9.96376 47.3457C9.66682 47.0469 9.50001 46.6415 9.50001 46.2188C9.50001 45.7961 9.66682 45.3907 9.96376 45.0919C10.2607 44.793 10.6634 44.6251 11.0833 44.6251C10.6634 44.6251 10.2607 44.4572 9.96376 44.1583C9.66682 43.8594 9.50001 43.454 9.50001 43.0313C9.50001 42.6087 9.66682 42.2033 9.96376 41.9044C10.2607 41.6055 10.6634 41.4376 11.0833 41.4376C10.7736 41.4382 10.4705 41.3473 10.2116 41.1762C9.9527 41.0051 9.74933 40.7613 9.62667 40.475L7.21684 34.8332C6.8718 34.0881 6.38436 33.4188 5.78234 32.8633C3.95082 31.0821 2.49481 28.9475 1.50131 26.5871C0.507807 24.2267 -0.00279396 21.6889 1.14982e-05 19.1254ZM19 3.18807C15.8465 3.18753 12.7647 4.13484 10.1495 5.9086C7.53437 7.68236 5.50497 10.2018 4.32143 13.1439C3.13789 16.0861 2.85413 19.3169 3.50652 22.4225C4.1589 25.528 5.71771 28.3667 7.98317 30.5747C8.81601 31.3844 9.61084 32.3725 10.1238 33.5741L12.1283 38.2501H25.878L27.8793 33.5741C28.3923 32.3725 29.1872 31.3844 30.02 30.5747C32.2857 28.3665 33.8445 25.5275 34.4968 22.4217C35.1491 19.3159 34.8651 16.0847 33.6812 13.1424C32.4972 10.2002 30.4673 7.68078 27.8517 5.90727C25.236 4.13375 22.1538 3.18689 19 3.18807Z" fill="#FFB300"/>
</svg>
