<svg xmlns="http://www.w3.org/2000/svg" xmlns:xlink="http://www.w3.org/1999/xlink" width="500" zoomAndPan="magnify" viewBox="0 0 375 271.499997" height="362" preserveAspectRatio="xMidYMid meet" version="1.0"><defs><clipPath id="id1"><path d="M 0.34375 0 L 85 0 L 85 271 L 0.34375 271 Z M 0.34375 0 " clip-rule="nonzero"/></clipPath><clipPath id="id2"><path d="M 291 0 L 374 0 L 374 271 L 291 271 Z M 291 0 " clip-rule="nonzero"/></clipPath><clipPath id="id3"><path d="M 80.367188 107.953125 L 136.367188 107.953125 L 136.367188 163.953125 L 80.367188 163.953125 Z M 80.367188 107.953125 " clip-rule="nonzero"/></clipPath><clipPath id="id4"><path d="M 159.292969 107.953125 L 215.292969 107.953125 L 215.292969 163.953125 L 159.292969 163.953125 Z M 159.292969 107.953125 " clip-rule="nonzero"/></clipPath><clipPath id="id5"><path d="M 238.222656 107.953125 L 294.222656 107.953125 L 294.222656 163.953125 L 238.222656 163.953125 Z M 238.222656 107.953125 " clip-rule="nonzero"/></clipPath></defs><g clip-path="url(#id1)"><path fill="#000000" d="M 76.722656 30.546875 L 84.355469 30.546875 L 84.355469 0 L 76.722656 0 C 51.429688 0 30.925781 20.511719 30.925781 45.816406 L 30.925781 99.273438 C 30.925781 104.078125 28.664062 108.605469 24.820312 111.492188 L 6.503906 125.238281 C 2.835938 127.988281 0.597656 132.242188 0.410156 136.820312 C 0.21875 141.402344 2.09375 145.824219 5.519531 148.871094 L 25.800781 166.902344 C 29.0625 169.800781 30.925781 173.957031 30.925781 178.316406 L 30.925781 229.089844 C 30.925781 254.394531 51.429688 274.910156 76.722656 274.910156 L 84.355469 274.910156 L 84.355469 244.363281 L 76.722656 244.363281 C 68.292969 244.363281 61.457031 237.527344 61.457031 229.089844 L 61.457031 178.316406 C 61.457031 165.230469 55.863281 152.765625 46.082031 144.070312 L 39.769531 138.457031 L 43.140625 135.925781 C 54.671875 127.273438 61.457031 113.695312 61.457031 99.273438 L 61.457031 45.816406 C 61.457031 37.382812 68.292969 30.546875 76.722656 30.546875 Z M 76.722656 30.546875 " fill-opacity="1" fill-rule="evenodd"/></g><g clip-path="url(#id2)"><path fill="#000000" d="M 298.875 30.167969 L 291.363281 30.167969 L 291.363281 0 L 298.875 0 C 323.765625 0 343.941406 20.261719 343.941406 45.253906 L 343.941406 98.046875 C 343.941406 102.796875 346.167969 107.265625 349.949219 110.113281 L 367.972656 123.691406 C 371.582031 126.40625 373.785156 130.609375 373.96875 135.132812 C 374.15625 139.65625 372.3125 144.023438 368.941406 147.03125 L 348.984375 164.839844 C 345.777344 167.703125 343.941406 171.808594 343.941406 176.117188 L 343.941406 226.261719 C 343.941406 251.253906 323.765625 271.515625 298.875 271.515625 L 291.363281 271.515625 L 291.363281 241.347656 L 298.875 241.347656 C 307.171875 241.347656 313.898438 234.59375 313.898438 226.261719 L 313.898438 176.117188 C 313.898438 163.191406 319.402344 150.878906 329.027344 142.292969 L 335.238281 136.746094 L 331.921875 134.25 C 320.574219 125.703125 313.898438 112.292969 313.898438 98.046875 L 313.898438 45.253906 C 313.898438 36.921875 307.171875 30.167969 298.875 30.167969 Z M 298.875 30.167969 " fill-opacity="1" fill-rule="evenodd"/></g><g clip-path="url(#id3)"><path fill="#38b6ff" d="M 108.367188 107.953125 C 92.902344 107.953125 80.367188 120.488281 80.367188 135.953125 C 80.367188 151.417969 92.902344 163.953125 108.367188 163.953125 C 123.832031 163.953125 136.367188 151.417969 136.367188 135.953125 C 136.367188 120.488281 123.832031 107.953125 108.367188 107.953125 " fill-opacity="1" fill-rule="nonzero"/></g><g clip-path="url(#id4)"><path fill="#38b6ff" d="M 187.292969 107.953125 C 171.828125 107.953125 159.292969 120.488281 159.292969 135.953125 C 159.292969 151.417969 171.828125 163.953125 187.292969 163.953125 C 202.757812 163.953125 215.292969 151.417969 215.292969 135.953125 C 215.292969 120.488281 202.757812 107.953125 187.292969 107.953125 " fill-opacity="1" fill-rule="nonzero"/></g><g clip-path="url(#id5)"><path fill="#38b6ff" d="M 266.222656 107.953125 C 250.757812 107.953125 238.222656 120.488281 238.222656 135.953125 C 238.222656 151.417969 250.757812 163.953125 266.222656 163.953125 C 281.683594 163.953125 294.222656 151.417969 294.222656 135.953125 C 294.222656 120.488281 281.683594 107.953125 266.222656 107.953125 " fill-opacity="1" fill-rule="nonzero"/></g></svg>